{
  "accessors": [
    {
      "bufferView": 2,
      "componentType": 5126,
      "count": 1203,
      "max": [
        1.6750612258911133,
        0.8910094499588013,
        4.296564102172852
      ],
      "min": [
        -1.6750612258911133,
        -1.1315386295318604,
        -5.422586441040039
      ],
      "type": "VEC3"
    },
    {
      "bufferView": 2,
      "byteOffset": 14436,
      "componentType": 5126,
      "count": 1203,
      "max": [
        1.0,
        0.9996249675750732,
        0.9964141249656677
      ],
      "min": [
        -0.9999287724494934,
        -0.9955464005470276,
        -0.9963535070419312
      ],
      "type": "VEC3"
    },
    {
      "bufferView": 1,
      "componentType": 5126,
      "count": 1203,
      "max": [
        0.1128290668129921,
        0.4270496368408203
      ],
      "min": [
        0.1128290668129921,
        0.4270496368408203
      ],
      "type": "VEC2"
    },
    {
      "bufferView": 0,
      "componentType": 5125,
      "count": 1803,
      "type": "SCALAR"
    }
  ],
  "asset": {
    "extras": {
      "author": "Vicente Pelegrini (https://sketchfab.com/vicentepelegrini)",
      "license": "CC-BY-SA-4.0 (http://creativecommons.org/licenses/by-sa/4.0/)",
      "source": "https://sketchfab.com/3d-models/low-poly-human-c135171e9ca84910b7daac1393e1db0b",
      "title": "Low poly human"
    },
    "generator": "Sketchfab-12.66.0",
    "version": "2.0"
  },
  "bufferViews": [
    {
      "buffer": 0,
      "byteLength": 7212,
      "name": "floatBufferViews",
      "target": 34963
    },
    {
      "buffer": 0,
      "byteLength": 9624,
      "byteOffset": 7212,
      "byteStride": 8,
      "name": "floatBufferViews",
      "target": 34962
    },
    {
      "buffer": 0,
      "byteLength": 28872,
      "byteOffset": 16836,
      "byteStride": 12,
      "name": "floatBufferViews",
      "target": 34962
    }
  ],
  "buffers": [
    {
      "byteLength": 45708,
      "uri": "scene.bin"
    }
  ],
  "materials": [
    {
      "doubleSided": true,
      "name": "cores",
      "pbrMetallicRoughness": {
        "baseColorFactor": [
          0.19806931955994886,
          0.07036009569659592,
          0.02315336617811042,
          1.0
        ],
        "metallicFactor": 0.0,
        "roughnessFactor": 0.48755540557795085
      }
    }
  ],
  "meshes": [
    {
      "name": "Cube.001_cores_0",
      "primitives": [
        {
          "attributes": {
            "NORMAL": 1,
            "POSITION": 0,
            "TEXCOORD_0": 2
          },
          "indices": 3,
          "material": 0,
          "mode": 4
        }
      ]
    }
  ],
  "nodes": [
    {
      "children": [
        1
      ],
      "matrix": [
        1.0,
        0.0,
        0.0,
        0.0,
        0.0,
        2.220446049250313e-16,
        -1.0,
        0.0,
        0.0,
        1.0,
        2.220446049250313e-16,
        0.0,
        0.0,
        0.0,
        0.0,
        1.0
      ],
      "name": "Sketchfab_model"
    },
    {
      "children": [
        2
      ],
      "matrix": [
        0.009999999776482582,
        0.0,
        0.0,
        0.0,
        0.0,
        0.0,
        0.009999999776482582,
        0.0,
        0.0,
        -0.009999999776482582,
        0.0,
        0.0,
        0.0,
        0.0,
        0.0,
        1.0
      ],
      "name": "9c6c25d0b4bd4a4495a34b7d57031892.fbx"
    },
    {
      "children": [
        3
      ],
      "name": "RootNode"
    },
    {
      "children": [
        4
      ],
      "matrix": [
        18.420135498046875,
        0.0,
        0.0,
        0.0,
        -0.0,
        -3.0010209898313878e-06,
        -18.420135498046633,
        0.0,
        0.0,
        18.420135498046633,
        -3.0010209898313878e-06,
        0.0,
        -0.038117170333862305,
        99.54214477539063,
        -1.5585975646972656,
        1.0
      ],
      "name": "Cube.001"
    },
    {
      "mesh": 0,
      "name": "Cube.001_cores_0"
    }
  ],
  "scene": 0,
  "scenes": [
    {
      "name": "Sketchfab_Scene",
      "nodes": [
        0
      ]
    }
  ]
}
